<svg width="81" height="49" viewBox="0 0 81 49" fill="none" xmlns="http://www.w3.org/2000/svg">
<g clip-path="url(#clip0_990_522)">
<path fill-rule="evenodd" clip-rule="evenodd" d="M13.9215 41.4888C15.3273 43.546 18.9449 45.5686 20.9851 46.0958C18.5248 48.032 5.81204 45.6204 0 42.8804C6.46354 44.0819 11.024 46.0612 18.3362 45.8711C16.0217 44.9635 12.207 42.1112 11.6669 39.2069C19.6392 43.1224 27.6286 45.2574 33.3292 45.3265C25.9313 42.2927 17.0418 36.0521 16.7761 30.8487C23.0339 34.4098 31.0919 37.2362 34.1693 37.0374C28.9402 25.9305 68.3387 27.1233 72.4191 33.4331C64.2411 32.612 50.6968 36.467 58.0433 40.3479C59.8863 41.3246 63.1867 42.1976 68.0643 41.0567C73.6449 39.7515 78.4026 35.5421 81.0086 24.4871C81.0133 29.2948 79.6148 33.9977 76.9874 38.0096C74.3599 42.0216 70.6197 45.1652 66.2327 47.0488C61.8458 48.9325 57.0061 49.4728 52.3167 48.6024C47.6273 47.7321 43.2956 45.4896 39.8614 42.1544C45.9991 46.8305 60.0749 51.9129 71.579 41.8346C69.3049 42.9561 66.8013 43.5232 64.27 43.4902C61.7387 43.4571 59.2505 42.8249 57.006 41.6444C54.6486 40.4257 49.5481 35.9311 63.4353 32.4132C64.1211 32.102 64.1039 31.3759 63.4353 31.2117C52.8913 28.5236 30.6461 30.2523 37.2725 39.2242C32.1291 39.4922 23.5568 37.072 20.7708 35.1964C26.1113 40.4689 33.0035 43.9609 39.7242 46.7354C31.9577 47.1244 20.7708 44.8684 13.9129 41.4715L13.9215 41.4888Z" fill="white"/>
<path fill-rule="evenodd" clip-rule="evenodd" d="M54.6744 27.5641C50.2425 26.2503 47.7479 24.9711 47.3365 21.3235C45.8963 8.64353 57.8547 0.535923 69.8389 3.8896C65.6917 1.20938 60.835 -0.137369 55.9118 0.0277079C50.9887 0.192785 46.2314 1.8619 42.27 4.814C38.3087 7.7661 35.3302 11.8619 33.7289 16.5589C32.1277 21.256 31.9794 26.3327 33.3036 31.1166C36.3724 28.1346 44.1133 26.3627 54.6744 27.5469V27.5641Z" fill="white"/>
</g>
<defs>
<clipPath id="clip0_990_522">
<rect width="81" height="49" fill="white"/>
</clipPath>
</defs>
</svg>
